<svg xmlns="http://www.w3.org/2000/svg" viewBox="0 0 342.38 187.72"><defs><style>.cls-1{fill:#fff;}.cls-2{fill:#668a91;}.cls-3{fill:#6c6262;}.cls-4{fill:#231919;}</style></defs><g id="heading"><path class="cls-1" d="M312.64,93.86s-52,72.65-141.45,72.65S29.73,93.86,29.73,93.86s54-72.65,141.46-72.65S312.64,93.86,312.64,93.86Z"/><path class="cls-2" d="M171.19,25.48h-1.48c-1,0-2.08.06-3.11.13l3,45.77c.53,0,1.08-.05,1.63-.05V25.48Zm-9.15.59c-1.53.2-3,.45-4.53.74l8.89,45c.51-.1,1-.18,1.56-.25L162,26.07Zm-9,1.78c-.91.24-1.82.51-2.72.79h0c-.56.17-1.11.35-1.66.54l14.71,43.44c.5-.16,1-.32,1.5-.45L153,27.85Zm-8.68,2.94-2,.85h0l-.07,0h0l-.13.06h0l-.05,0h0l-.06,0h0l-.06,0h0l-.05,0h0l-.06,0h0l-.05,0h0l0,0h0l-.06,0h0l0,0h0l-.12.05h0l-.06,0h0l-1.23.58,20.3,41.14c.46-.23,1-.45,1.43-.65L144.36,30.79Zm-8.22,4.06c-1.33.76-2.62,1.57-3.89,2.42l25.48,38.14q.66-.45,1.35-.84L136.14,34.85Zm-7.62,5.09h0l0,0,0,0,0,0h0l-.05,0h0l-.05,0h0c-.61.46-1.2.94-1.79,1.43h0l0,0h0l0,0h0l0,0,0,0h0l0,0h0L125,42.85l30.22,34.5c.4-.35.82-.69,1.24-1l-27.91-36.4Zm-6.9,6h0l0,0h0l0,0,0,0,0,0,0,0,0,0,0,.05h0l0,0,0,0,0,0h0l-.11.11h0c-.42.43-.83.85-1.24,1.29h0l-.1.11h0l0,0v0l-.06.06h0l0,0,0,0,0,0,0,0,0,0,0,0v0l0,0h0l-.09.1h0c-.33.35-.64.7-1,1.06l34.44,30.3c.35-.4.72-.79,1.1-1.17L121.62,46Zm-6.06,6.88c-.54.71-1.08,1.44-1.6,2.17h0l0,0v0l0,0,0,0,0,0,0,0,0,0,0,0h0l-.89,1.29L151,82.16c.29-.44.6-.88.93-1.3l-36.34-28Zm-5.11,7.61c-.68,1.18-1.33,2.37-1.94,3.59h0l0,.06h0l0,.06h0l0,0,0,0v0l0,0h0l0,.09h0l0,0h0l0,0L149.37,84.9c.24-.47.49-.94.75-1.39l-39.67-23Zm-4.07,8.22c-.1.23-.19.46-.28.69h0v0l0,0v0l0,.05h0l0,.06h0c-.33.82-.64,1.65-.94,2.48h0l0,.06v.09h0c-.09.25-.17.49-.25.73L148.17,87.8c.16-.5.35-1,.55-1.47L106.38,68.69Zm-3,8.67v0h0c-.39,1.46-.74,2.94-1,4.44l45,9c.1-.51.22-1,.36-1.53L103.42,77.36Zm-1.8,9c-.07.51-.13,1-.19,1.53h0v.05h0l0,.15h0v1.34s0,.1,0,.15h0v.05h0c0,.42-.07.84-.09,1.26L146.93,94c0-.53.09-1.07.16-1.59l-45.47-6ZM101,95.5v.43h0v2h0v0h0V98h0v.22h0v0h0a1.62,1.62,0,0,0,0,.22h0v0h0a1.48,1.48,0,0,0,0,.21h0v0h0c0,.09,0,.19,0,.28h0v.06h0a1.55,1.55,0,0,0,0,.22h0v.06h0c0,.07,0,.14,0,.22h0v0h0v0h0c0,.07,0,.14,0,.21h0v0l45.79-2.84c0-.52-.05-1-.05-1.58V95.6L101,95.5Zm46.07,3.33-45.5,5.82c0,.19,0,.38.07.57h0v.06h0l0,.13h0v.36h0V106h0l0,.15h0v0h0c0,.28.09.57.14.85h0v0h0l0,.15h0v.31l0,.13h0c.08.47.17.94.26,1.41l45-8.79c-.1-.51-.19-1-.25-1.56Zm.6,3.09-44.35,11.73c.3,1.13.63,2.24,1,3.34h0V117h0s0,.09,0,.14v.11l0,.06v0l0,0v0l0,0h0s0,.09,0,.13h0l.13.4,43.48-14.62q-.25-.73-.45-1.5Zm1,3-42.43,17.45.36.85h0l0,.06h0l0,.06h0l0,0v.08l0,0,0,0v.06l0,0v0l0,0v0l0,0v.06l0,0,0,0V124l0,0v0l0,0v0l0,0v0l0,0v0l0,0v0l0,0v0l0,0v0l0,0v0l0,0v0l0,.06h0l0,0v0l0,0v0l0,.06h0l0,.06h0l0,0h0l0,.06h0l0,0v0l0,0v0l0,0v0l0,0v0l0,0h0l0,.06v0l0,0v.07l0,0,0,0v0l0,0v0l.06.12h0l0,.05h0l.3.62,41.18-20.2c-.23-.46-.44-.95-.64-1.43Zm1.39,2.83-39.78,22.85c.54.94,1.1,1.87,1.69,2.78h0l.08.12h0l0,0v0l0,0,0,0,0,0,0,0v0l0,0,0,0,0,0v0l0,0,0,0,0,0v0l0,0,0,0,0,0v0l0,0v0l0,0v0l0,0v0l0,0,0,0,0,0v0l0,0,0,0h0l0,0,38.2-25.4c-.29-.44-.57-.89-.83-1.35Zm1.76,2.65L115.37,138.2h0l0,0,0,0,0,0,0,0,0,.05,0,0h0l0,0h0c.79,1,1.61,2,2.45,3h0l0,0v0l0,0,0,0v0l0,0,0,0,0,0h0l0,0h0l34.57-30.14c-.35-.41-.69-.82-1-1.25Zm2.11,2.42-32.55,32.32c.57.58,1.15,1.15,1.74,1.7h0l.1.1h0l0,0h0l0,0h0l0,0h0l0,0h0l0,0v0l0,0,0,0,0,0,0,0,0,0,0,0,0,0,0,0,0,0,0,0,0,0,0,0v0l.1.09h0l0,0h0l.1.09h0l0,0h0l.11.1h0l.46.4,30.38-34.37c-.4-.35-.8-.72-1.17-1.1Zm2.4,2.13-28.08,36.27c.6.46,1.21.92,1.83,1.37h0l.06,0h0l0,0h0l0,0,0,0,0,0,0,0h0l.11.08h0c.49.35,1,.69,1.49,1l25.67-38c-.44-.29-.88-.61-1.3-.93ZM159,116.7l-23.12,39.61c.49.29,1,.57,1.49.85h0l.06,0h0l.05,0h.05l0,0h0l.09,0h0c.74.41,1.5.8,2.25,1.18l20.48-41c-.46-.23-.93-.49-1.39-.75Zm2.82,1.41-17.74,42.3q1.23.51,2.49,1h0l.19.07h.06l.08,0H147l.06,0h0l.05,0h0l.05,0h0l.13,0h0q.51.19,1,.36l14.92-43.37c-.49-.17-1-.36-1.47-.56Zm3,1-12,44.26.39.1h.31l.13,0h0l.06,0h0l.2.05h0q.56.15,1.11.27h0l.21.05h0l.2.05h0l.13,0h.22l.06,0h.08l.06,0H157l.07,0h.08l.06,0h0l9.1-45q-.76-.17-1.53-.36Zm3.09.62-6.13,45.46,1.79.22h0l.16,0H164l.14,0h.57c.51,0,1,.09,1.54.12l3.16-45.76c-.53,0-1.07-.09-1.59-.16Zm4.86.18c-.5,0-1,0-1.52,0h-.12l-.21,45.87h1.67c1,0,1.95-.06,2.92-.11l-2.74-45.79Zm3.16-.4c-.52.1-1,.18-1.57.25L180,165.29h.15c1.48-.18,2.94-.42,4.38-.7l-8.67-45Zm3-.79c-.5.16-1,.31-1.5.44L189,163.56l.59-.16h.52l.06,0h0l.06,0h0l.06,0h0l.13,0h0l.05,0h0l.13,0h0l.05,0h0l.13,0h0l.05,0h0l.13,0h0l.05,0h0l.05,0h0l.06,0h.09l0,0h.19l.08,0h.11l.15-.05h0l1.45-.47L178.9,118.74Zm2.9-1.19c-.47.23-1,.45-1.43.64l17.34,42.47c1.31-.54,2.6-1.11,3.87-1.72h0l0,0h.05l.22-.11-20.1-41.23Zm2.75-1.57c-.44.29-.89.57-1.35.83L206,156.64l.75-.43h0l.12-.07h0l.06,0h0L207,156h0l.06,0h0l.12-.07h0l.05,0h0l.06,0h0l.05,0h0l.05,0h0l.06,0h0l.06,0h0l.12-.07h0l.05,0h0l.11-.07h0l0,0h0l.11-.07h0l.05,0h0l.06,0h0l.06,0h0l.18-.11h0l1.44-.93L184.55,116ZM187.1,114c-.4.35-.82.69-1.25,1l27.75,36.52,1-.78h0l0,0h0l0,0,0,0,0,0,0,0,0,0,0,0,0,0,0,0,0,0,0,0h0l.08-.06h0l0,0h0l.11-.09h0l0,0h0l.12-.09h0l0,0h0l.08-.07h0l0,0h0l0,0h0l.06,0h0l0,0,0,0,0,0,0,0h0l0,0h0l0,0h0l.06,0h0l0,0h0l1.15-1L187.1,114Zm2.28-2.25c-.35.4-.72.79-1.1,1.16l32.24,32.62.31-.3h0l0-.05h0l.05-.05h0l0,0,0,0,0,0h0l.05,0h0l0,0,0,0,0,0,.05-.05v0l0,0v0a1.85,1.85,0,0,0,.14-.14h0c.77-.8,1.53-1.61,2.27-2.44l-34.3-30.46Zm2-2.53c-.3.44-.62.87-.94,1.29l36.2,28.17.26-.34h0l.08-.11h0l0,0v0l0,0v0l0,0,0,0,0,0,0,0,0,0,0,0v0l0,0h0l.09-.12h0l0,0h0l0-.07h0l0,0h0l.22-.3h0l0,0h0l.09-.12h0l.12-.16h0l.12-.16h0l.08-.12h0l0,0v0l0,0v0l0,0v0l0,0,0,0,0,0,0,0,0,0,0,0v0l0-.05h0l0-.05v0l0,0h0l0-.06h0l0,0h0l0,0h0l0,0h0l0,0h0l0-.05h0l0-.06h0l0,0h0l.07-.12h0l0,0h0l.07-.11h0l0-.05h0l.07-.11h0l0,0h0l0-.06h0l0,0h0l-38-25.75Zm1.6-2.73c-.23.46-.49.93-.75,1.39l39.56,23.21c.77-1.31,1.5-2.66,2.19-4l-41-20.57Zm1.22-2.9c-.17.5-.35,1-.56,1.47l42.26,17.84,0-.07h0l0-.05v-.06q.78-1.83,1.44-3.72h0a.58.58,0,0,0,.05-.14h0v-.13l0,0v0h0l-43.34-15Zm.83-3c-.1.51-.22,1-.36,1.53l44.23,12.14v-.08l0,0v-.4l0,0v-.38h0l0-.06v-.07h0v-.06h0l0-.07h0l0-.06h0q.33-1.27.6-2.58h0l0-.06v-.07h0l0-.06v-.11h0c0-.08,0-.17.05-.25L195,100.61Zm.43-3.14c0,.53-.09,1.06-.16,1.59l45.44,6.24c.15-1.07.27-2.15.37-3.23h0v-.31h0v-.14h0c0-.28,0-.57.07-.86l-45.76-3.26Zm45.82-5.9L195.46,94.2c0,.48,0,1,0,1.46v.18l45.87.31v-.26h0v0h0v0h0v-.11h0v-.51h0V95h0V95h0v0h0v-.06h0c0-1.09-.05-2.17-.11-3.25Zm-1.12-9.1L195.07,91c.1.51.18,1,.24,1.56L240.84,87c0-.19-.05-.38-.07-.57h0v-.06h0s0-.09,0-.13v-.37h0l0-.1v-.08l0-.2h0a2.51,2.51,0,0,0,0-.27h0l0-.21h0c-.13-.84-.27-1.67-.43-2.5Zm-2.3-8.88L194.28,88c.16.49.31,1,.44,1.5L239.13,78c-.06-.21-.11-.42-.17-.62h0l-.06-.21h0l-.05-.21h0l0-.06h0a.74.74,0,0,1,0-.14h0c-.26-.92-.53-1.83-.83-2.73v0l0,0v-.06l0-.06h0v0h0l0-.17Zm-3.45-8.49-41.28,20c.23.47.44,1,.64,1.44l42.51-17.25,0-.09v-.06l0,0v0l0-.06v0l0,0v0l-.05-.12h0l0-.06h0l-.06-.12h0l0-.06h0a.5.5,0,0,0-.05-.13h0l0-.06h0a.5.5,0,0,1-.05-.13h0l0,0h0l0-.06h0l0,0v0l0,0v0l0-.06h0l0,0v0l0,0v-.06l0,0v0l0,0v0l-.05-.12h0l0,0h0l-.06-.14h0c-.15-.33-.29-.65-.44-1h0l-.07-.13h0l0,0v0l0-.06h0l0,0v0l0-.05h0c-.12-.26-.24-.52-.37-.77Zm-4.53-8L191.54,82.35c.29.44.57.89.83,1.35L232.25,61q-1.11-1.93-2.32-3.79h0l0,0v0l0,0Zm-5.53-7.32-34.71,30c.35.4.69.82,1,1.24l36.59-27.66-.52-.68h0l0,0h0l0,0h0l0,0,0,0,0,0,0,0,0,0,0,0v0l0,0,0,0-.12-.15h0c-.63-.8-1.28-1.59-2-2.36Zm-6.43-6.53L187.36,77.51c.39.35.78.72,1.16,1.1l32.7-32.17h0l0,0h0l-.14-.15h0c-.72-.73-1.46-1.44-2.21-2.14h0l0,0v0l0,0h0l0,0,0,0h0c-.23-.22-.47-.43-.71-.64Zm-7.22-5.65-25.84,37.9c.44.3.88.62,1.29,1l28.25-36.14q-1.8-1.41-3.7-2.71ZM202.78,33l-20.68,41c.47.24.94.49,1.39.76L206.8,35.17q-1.16-.68-2.34-1.32h0l0,0h0l-.12-.06h0l0,0h0l-.08,0h0l0,0h0l0,0h0l-.07,0h0l0,0h0l-.07,0h0l0,0h0l0,0h0l-.08,0h0l0,0h0l-.73-.38Zm-8.44-3.58-15.13,43.3c.49.18,1,.37,1.46.57l18-42.22-.71-.29h0l-.19-.08h0l-.05,0h0l-.35-.14h0l-.4-.16h0l-.8-.31h0l-.2-.07h0l-.19-.07h0l0,0h0l-.09,0h-.14l0,0h-.06l-.05,0h0l-.13-.05h0l-.81-.29Zm-8.84-2.45-9.31,44.92c.52.1,1,.23,1.53.37L190,28c-1.46-.41-3-.77-4.46-1.08Zm-9.08-1.27-3.37,45.75c.53,0,1.07.1,1.59.17L181,26.16h-.35l-.14,0h-.07c-.73-.09-1.47-.18-2.2-.25h-.75l-1.05-.09Zm-5.23-.19V71.35h.23l.42-45.87h-.65Z"/><path class="cls-3" d="M171.19,21.21c87.5,0,141.45,72.65,141.45,72.65s-52,72.65-141.45,72.65S29.73,93.86,29.73,93.86s54-72.65,141.46-72.65m0-20a181,181,0,0,0-66.32,12.73A213.18,213.18,0,0,0,55.71,41.48c-26.48,19.7-41.41,39.62-42,40.45L5,93.64l8.49,11.86c.61.84,15.1,20.89,41.44,40.67a208.23,208.23,0,0,0,49.17,27.62,183.94,183.94,0,0,0,67.11,12.72,183.89,183.89,0,0,0,67.1-12.72,208.1,208.1,0,0,0,49.18-27.62c26.34-19.78,40.83-39.83,41.43-40.67l8.49-11.86L328.7,81.93c-.62-.83-15.55-20.75-42-40.45a212.92,212.92,0,0,0-49.15-27.54A181,181,0,0,0,171.19,1.21Z"/><circle class="cls-4" cx="170.22" cy="94.69" r="27.12"/></g></svg>