<svg id="Layer_2" data-name="Layer 2" xmlns="http://www.w3.org/2000/svg" viewBox="0 0 84.99 84.77"><defs><style>.cls-1{fill:#6c6262;}</style></defs><g id="_-Product-Icons" data-name="ðŸ”-Product-Icons"><g id="ic_fluent_globe_24_filled" data-name="ic fluent globe 24 filled"><path id="_-Color" data-name="ðŸŽ¨-Color" class="cls-1" d="M29.74,60.93H55.25c-2.56,13.48-7.67,22.65-12.76,22.65C37.56,83.58,32.6,75,30,62.14l-.24-1.21h0Zm-24.06,0H23.42c1.51,8.58,4,15.87,7.39,21A41.33,41.33,0,0,1,6.29,62.08l-.61-1.15Zm55.88,0H79.3a41.3,41.3,0,0,1-25.12,21c3.11-4.77,5.54-11.44,7.07-19.28l.31-1.7h0Zm1.25-26.78H82.87a41.34,41.34,0,0,1-1.06,20.6H62.44a114.43,114.43,0,0,0,.66-12.36c0-1.87-.05-3.72-.13-5.54l-.16-2.7h0Zm-60.7,0H22.18q-.29,4-.29,8.24c0,3.41.14,6.75.42,10l.24,2.39H3.17a41.67,41.67,0,0,1-1.06-20.6Zm26.27,0H56.6q.32,4,.32,8.24c0,3.45-.17,6.8-.47,10l-.25,2.37H28.79a103.67,103.67,0,0,1-.72-12.36q0-3.18.18-6.23l.13-2h0ZM54.62,3.56l-.44-.7A41.29,41.29,0,0,1,81.1,28H62.19c-1.3-10-3.94-18.51-7.57-24.41l-.44-.7ZM30.31,3l.5-.15c-3.63,5.56-6.33,13.72-7.76,23.3L22.8,28H3.88A41.33,41.33,0,0,1,30.31,3l.5-.15ZM42.49,1.19c5.44,0,10.9,10.48,13.24,25.48l.2,1.3H29.06C31.28,12.27,36.9,1.19,42.49,1.19Z"/></g></g></svg>