<svg id="Layer_2" data-name="Layer 2" xmlns="http://www.w3.org/2000/svg" viewBox="0 0 84.99 84.77"><defs><style>.cls-1{fill:#6c6262;}</style></defs><path class="cls-1" d="M44.63,1.46A41,41,0,1,0,83.42,40.25,41,41,0,0,0,44.63,1.46ZM66.31,31.14c0,.36,0,.71,0,1.06a35.66,35.66,0,0,1-8.87,23.24A33.07,33.07,0,0,1,31.84,66.68a34.36,34.36,0,0,1-18.58-5.44,1,1,0,0,1,.63-1.76,21.83,21.83,0,0,0,2.69.16A22.5,22.5,0,0,0,28.63,56.2a12.75,12.75,0,0,1-9.33-8.54.95.95,0,0,1,1.09-1.23c.32.06.65.11,1,.14a12.8,12.8,0,0,1-6.24-11v-.17a1,1,0,0,1,.49-.81,1,1,0,0,1,.94,0,11.29,11.29,0,0,0,1.7.76,12.79,12.79,0,0,1-1.31-14.67,1,1,0,0,1,1.57-.12A32.66,32.66,0,0,0,40.9,32.48a12.94,12.94,0,0,1-.1-1.65,12.75,12.75,0,0,1,21.66-9.11,22.49,22.49,0,0,0,6.68-2.63.93.93,0,0,1,1.08.07,1,1,0,0,1,.32,1A12.67,12.67,0,0,1,68,24.74a22.33,22.33,0,0,0,2.87-1A1,1,0,0,1,72,25.11,24.77,24.77,0,0,1,66.31,31.14Z"/></svg>