<svg id="Layer_2" data-name="Layer 2" xmlns="http://www.w3.org/2000/svg" viewBox="0 0 84.99 84.77"><defs><style>.cls-1{fill:#6c6262;}</style></defs><path class="cls-1" d="M42.49,1.4A42,42,0,0,0,29.21,83.3c2.1.39,2.87-.91,2.87-2S32,77,32,73.45c-11.69,2.54-14.15-5-14.15-5C16,63.64,13.2,62.35,13.2,62.35c-3.81-2.61.29-2.56.29-2.56,4.22.3,6.44,4.33,6.44,4.33,3.75,6.43,9.83,4.57,12.23,3.5A8.91,8.91,0,0,1,34.82,62c-9.33-1.07-19.14-4.67-19.14-20.77A16.25,16.25,0,0,1,20,30c-.44-1.06-1.87-5.33.41-11.12,0,0,3.53-1.13,11.56,4.31a39.95,39.95,0,0,1,21,0c8-5.44,11.54-4.31,11.54-4.31,2.29,5.79.85,10.06.42,11.12A16.24,16.24,0,0,1,69.3,41.23c0,16.14-9.83,19.69-19.19,20.73C51.62,63.27,53,65.82,53,69.74c0,5.63-.05,10.15-.05,11.54,0,1.11.76,2.42,2.89,2A42,42,0,0,0,42.49,1.4"/></svg>