<svg id="Layer_2" data-name="Layer 2" xmlns="http://www.w3.org/2000/svg" viewBox="0 0 248.33 144.34"><defs><style>.cls-1,.cls-2{fill:#6c6262;}.cls-2{fill-rule:evenodd;}</style></defs><rect class="cls-1" x="44.5" y="54.41" width="25.53" height="5.39" transform="translate(-23.61 57.22) rotate(-45)"/><polygon class="cls-1" points="62.98 44.78 51.54 42.23 14.55 5.25 5.4 14.4 42.39 51.39 44.93 62.83 62.98 44.78"/><rect class="cls-1" x="-0.01" y="3.84" width="13.08" height="5.39" transform="translate(-2.71 6.53) rotate(-45)"/><path class="cls-1" d="M153.59,87.23l4.38,12a4.67,4.67,0,0,1-8.14,4.43,13.31,13.31,0,0,1-1.13-2.15c-2.19-4.61-4.38-9.22-6.53-13.85a3,3,0,0,0-2.28-1.94c-1.64-.36-3.25-.88-5.18-1.41,1.49,9,2.89,17.63,4.37,26.26a15.27,15.27,0,0,0,1.11,3.21q2.37,5.66,4.76,11.31h98Z"/><path class="cls-1" d="M117.18,111.5l.77-1.23-4.87-14.84c-1,1.84-1.8,3.19-2.45,4.6a7.07,7.07,0,0,1-6.24,4.29c-4.52.49-9,1.32-13.48,2a7.44,7.44,0,0,0-1.24.41c-.07,1.37.53,3.2-1.5,3.57s-2.75-1.34-3.7-2.76c-2.55.07-5.16-.16-6.31-2.93-.89-2.15-.16-4.14,1.64-5.78-2.69-5-5.35-9.87-8-14.78-2.2-4.06-4.52-8-6.72-12-.08-.14-.18-.28-.25-.42-1-2-.77-3.49.51-4.26s3.18-.74,4.38,1.46c4.54,8.34,8.52,17,13,25.32l1.82,3.34c3.34-.73,6.65-1.44,10-2.17a43.45,43.45,0,0,1,5-1.13c1.49-.16,2-1,2.58-2.16,2.31-5,4.69-10,7-15,.53-1.09,1.07-2.19,1.7-3.22a8.15,8.15,0,0,1,3.56-3.2L70.13,51.91l-8.77,8.77-.25.25L52.34,69.7l23,55.35h33.27Z"/><path class="cls-2" d="M153.59,87.23l-2.79-7.65a5.17,5.17,0,0,0-2.94-3.08c-6-2.65-12-5.27-18-7.91a11.39,11.39,0,0,0-8.32-.38c-2.07.68-4.14,1.39-6.22,2.06a9.24,9.24,0,0,0-.92.36Z"/><path class="cls-2" d="M122.66,52.7l-.15,0c-2.24-.39-4.53-.71-6.75-1l-1.85-.26a2.21,2.21,0,0,0-1.67.43,17.81,17.81,0,0,1-9,2.76,11.46,11.46,0,1,0,22.57-1.77A6.17,6.17,0,0,1,122.66,52.7Z"/><path class="cls-2" d="M127.09,48.87a1.57,1.57,0,0,0-.18.25c-1.22,2.78-1.2,2.72-4.17,2.21S117,50.44,114.11,50a3.57,3.57,0,0,0-2.63.65,18,18,0,0,1-11.27,2.49c-.42,0-1-.16-1.21-.58s.34-1,.69-1.25c2.42-1.45,3.27-3.46,2.36-6-.78-2.19-1.39-4.45-2-6.71-.18-.73-.34-1.95,0-2.22a3.09,3.09,0,0,1,2.46-.32c3.82,1.26,7.58,2.7,11.37,4,5.14,1.79,10.29,3.53,15.43,5.29l.85.29c.95.34,2,.67,1.76,2s-1.34,1.45-2.38,1.48A19.31,19.31,0,0,1,127.09,48.87Z"/><path class="cls-1" d="M13.62,144.34V130.29h2.7V141.9h6v2.44Z"/><path class="cls-1" d="M36,144.34H30.44l-1.86-1.76V130.29h2.71V141.9h3.86V130.29h2.7v12.29Z"/><path class="cls-1" d="M52,144.34H46.69l-1.86-1.76V132.05l1.86-1.76H52l1.86,1.76v.68H47.53v9.17h6.28v.68Z"/><path class="cls-1" d="M66,138.59v5.75H63.33l0-5.75-4.26-8.3h3.14l2.49,5.55,2.4-5.55h3.08Z"/><path class="cls-1" d="M83.37,138.92h-4.7v5.42H76V130.29h7.4l1.87,1.76v5.11Zm-.83-6.19H78.67v3.75h3.87Z"/><path class="cls-1" d="M98.3,144.34l-1-3.45H93.52l-.93,3.45h-2.7l4.26-14.05h2.47l4.28,14.05Zm-2.92-10-1.16,4.22h2.31Z"/><path class="cls-1" d="M113.45,144.34l-2.24-5.42h-1.79v5.42h-2.7V130.29h7.4l1.86,1.76v5.11l-1.86,1.76,2.33,5.42Zm-.17-11.61h-3.86v3.64h3.86Z"/><path class="cls-1" d="M130,144.34h-6.17l-1.19-1.12v-1.47h6.41V138.5h-4.59l-1.86-1.76v-4.69l1.86-1.76h6.17l1.19,1.12v1.47h-6.41v3H130l1.86,1.78v4.89Z"/><path class="cls-1" d="M146.26,144.34h-5.54l-1.86-1.76V132.05l1.86-1.76h5.54l1.87,1.76v10.53Zm-.83-11.61h-3.87v9.17h3.87Z"/><path class="cls-1" d="M162,144.34l-4.26-8,0,8h-2.68V130.29h2.35l4.26,8v-8h2.65v14.05Z"/><path class="cls-1" d="M178.76,144.34h-6.17l-1.19-1.12v-1.47h6.4V138.5h-4.58l-1.87-1.76v-4.69l1.87-1.76h6.17l1.18,1.12v1.47h-6.4v3h4.59l1.86,1.78v4.89Z"/><path class="cls-1" d="M187.6,144.34V130.29h2.7V141.9h6v2.44Z"/><path class="cls-1" d="M209.81,144.34l-1.05-3.45H205l-.93,3.45h-2.69l4.25-14.05h2.47l4.29,14.05Zm-2.91-10-1.17,4.22H208Z"/><path class="cls-1" d="M225.63,144.34h-7.4V130.29h7.4l1.87,1.76v4.06l-1.17,1.1,1.17,1.09v4.28Zm-.84-11.61h-3.86V136h3.86Zm0,5.68h-3.86v3.49h3.86Z"/><path class="cls-1" d="M241.88,144.34h-6.17l-1.19-1.12v-1.47h6.41V138.5h-4.59l-1.86-1.76v-4.69l1.86-1.76h6.17l1.19,1.12v1.47h-6.41v3h4.59l1.86,1.78v4.89Z"/></svg>